# xmcd
#
# Track frame offsets:
# 182
# 17185
# 39040
# 50202
# 85805
# 106002
# 122957
# 139790
# 157092
# 170480
# 190162
# 209930
# 242820
# 261945
# 288002
#
# Disc length: 4149 seconds
#
#
# Revision: 0
# Processed by: cddbd v1.5.2PL0 Copyright (c) Steve Scherf et al.
# Submitted via: Nero 7, 11, 10, 0 
#
DISCID=da10330f
DTITLE=Ray Fuller and The Bluesrockers - Live
DYEAR=1992
DGENRE=Blues
TTITLE0=Love's So Tough
TTITLE1=Rockinitis
TTITLE2=Kingbee
TTITLE3=So Many Roads
TTITLE4=Teena Neena Nu
TTITLE5=Oh My Cherie
TTITLE6=Good Rockin' Tonight
TTITLE7=Everything That's Good
TTITLE8=Got Love If You Want It
TTITLE9=Oahu Boogie
TTITLE10=Talk To My Baby
TTITLE11=Love And Alcohol
TTITLE12=Money Talks
TTITLE13=Sally Mae
TTITLE14=Hillbilly Fever
EXTD=
EXTT0=Love's So Tough
EXTT1=Rockinitis
EXTT2=Kingbee
EXTT3=So Many Roads
EXTT4=Teena Neena Nu
EXTT5=Oh My Cherie
EXTT6=Good Rockin' Tonight
EXTT7=Everything That's Good
EXTT8=Got Love If You Want It
EXTT9=Oahu Boogie
EXTT10=Talk To My Baby
EXTT11=Love And Alcohol
EXTT12=Money Talks
EXTT13=Sally Mae
EXTT14=Hillbilly Fever
PLAYORDER=
